<?xml version="1.0" encoding="UTF-8" standalone="no"?>
<svg
   xmlns:dc="http://purl.org/dc/elements/1.1/"
   xmlns:cc="http://creativecommons.org/ns#"
   xmlns:rdf="http://www.w3.org/1999/02/22-rdf-syntax-ns#"
   xmlns:svg="http://www.w3.org/2000/svg"
   xmlns="http://www.w3.org/2000/svg"
   xmlns:sodipodi="http://sodipodi.sourceforge.net/DTD/sodipodi-0.dtd"
   xmlns:inkscape="http://www.inkscape.org/namespaces/inkscape"
   width="32"
   height="32"
   viewBox="0 0 8.4666665 8.4666669"
   version="1.1"
   id="svg849"
   inkscape:version="1.0 (4035a4f, 2020-05-01)"
   sodipodi:docname="eyeglasses-round.svg">
  <defs
     id="defs843">
    <inkscape:path-effect
       effect="powerstroke"
       id="path-effect964"
       is_visible="true"
       lpeversion="1"
       offset_points="2,0.1322915"
       sort_points="true"
       interpolator_type="CubicBezierJohan"
       interpolator_beta="0.2"
       start_linecap_type="zerowidth"
       linejoin_type="extrp_arc"
       miter_limit="4"
       scale_width="1"
       end_linecap_type="zerowidth" />
    <inkscape:path-effect
       effect="powerstroke"
       id="path-effect960"
       is_visible="true"
       lpeversion="1"
       offset_points="3,0.1322915"
       sort_points="true"
       interpolator_type="CubicBezierJohan"
       interpolator_beta="0.2"
       start_linecap_type="zerowidth"
       linejoin_type="extrp_arc"
       miter_limit="4"
       scale_width="1"
       end_linecap_type="zerowidth" />
    <inkscape:path-effect
       effect="powerstroke"
       id="path-effect956"
       is_visible="true"
       lpeversion="1"
       offset_points="3,0.1322915"
       sort_points="true"
       interpolator_type="CubicBezierJohan"
       interpolator_beta="0.2"
       start_linecap_type="zerowidth"
       linejoin_type="extrp_arc"
       miter_limit="4"
       scale_width="1"
       end_linecap_type="zerowidth" />
    <inkscape:path-effect
       effect="powerstroke"
       id="path-effect952"
       is_visible="true"
       lpeversion="1"
       offset_points="2,0.1322915"
       sort_points="true"
       interpolator_type="CubicBezierJohan"
       interpolator_beta="0.2"
       start_linecap_type="zerowidth"
       linejoin_type="extrp_arc"
       miter_limit="4"
       scale_width="1"
       end_linecap_type="zerowidth" />
  </defs>
  <sodipodi:namedview
     id="base"
     pagecolor="#ffffff"
     bordercolor="#666666"
     borderopacity="1.0"
     inkscape:pageopacity="0.0"
     inkscape:pageshadow="2"
     inkscape:zoom="19.40625"
     inkscape:cx="16"
     inkscape:cy="16"
     inkscape:document-units="px"
     inkscape:current-layer="layer1"
     inkscape:document-rotation="0"
     showgrid="false"
     units="px"
     inkscape:pagecheckerboard="true"
     inkscape:showpageshadow="false"
     inkscape:window-width="1440"
     inkscape:window-height="829"
     inkscape:window-x="0"
     inkscape:window-y="23"
     inkscape:window-maximized="0" />
  <metadata
     id="metadata846">
    <rdf:RDF>
      <cc:Work
         rdf:about="">
        <dc:format>image/svg+xml</dc:format>
        <dc:type
           rdf:resource="http://purl.org/dc/dcmitype/StillImage" />
        <dc:title></dc:title>
      </cc:Work>
    </rdf:RDF>
  </metadata>
  <g
     inkscape:label="Layer 1"
     inkscape:groupmode="layer"
     id="layer1">
    <path
       d="M 1.9833269,2.2672592 A 1.8582131,1.9661679 0 0 0 0.1254032,4.2336315 1.8582131,1.9661679 0 0 0 1.9833269,6.1994075 1.8582131,1.9661679 0 0 0 3.8037107,4.6275015 H 3.9359941 L 4.134419,4.2896434 H 4.3328437 L 4.5312686,4.6275015 H 4.6629557 A 1.8582131,1.9661679 0 0 0 6.4833396,6.1994075 1.8582131,1.9661679 0 0 0 8.3412635,4.2336315 1.8582131,1.9661679 0 0 0 6.4833396,2.2672592 1.8582131,1.9661679 0 0 0 4.6426962,3.9660857 H 3.8245661 A 1.8582131,1.9661679 0 0 0 1.9833269,2.2672592 Z m -0.00655,0.2955517 a 1.5786293,1.6703414 0 0 1 0.00655,0 A 1.5786293,1.6703414 0 0 1 3.5623835,4.2336315 1.5786293,1.6703414 0 0 1 1.9833269,5.9038558 1.5786293,1.6703414 0 0 1 0.4048664,4.2336315 1.5786293,1.6703414 0 0 1 1.9767724,2.5628109 Z m 4.5000128,0 a 1.5786293,1.6703414 0 0 1 0.00655,0 A 1.5786293,1.6703414 0 0 1 8.0618002,4.2336315 1.5786293,1.6703414 0 0 1 6.4833396,5.9038558 1.5786293,1.6703414 0 0 1 4.9048792,4.2336315 1.5786293,1.6703414 0 0 1 6.4767852,2.5628109 Z"
       style="opacity:1;vector-effect:none;fill:#000000;fill-opacity:1;stroke:none;stroke-width:0.702914;stroke-linecap:round;stroke-linejoin:round;stroke-miterlimit:4;stroke-dasharray:none;stroke-dashoffset:0;stroke-opacity:1"
       id="path4972" />
  </g>
</svg>
