<?xml version="1.0" encoding="UTF-8" standalone="no"?>
<svg
   xmlns:dc="http://purl.org/dc/elements/1.1/"
   xmlns:cc="http://creativecommons.org/ns#"
   xmlns:rdf="http://www.w3.org/1999/02/22-rdf-syntax-ns#"
   xmlns:svg="http://www.w3.org/2000/svg"
   xmlns="http://www.w3.org/2000/svg"
   xmlns:sodipodi="http://sodipodi.sourceforge.net/DTD/sodipodi-0.dtd"
   xmlns:inkscape="http://www.inkscape.org/namespaces/inkscape"
   width="32"
   height="32"
   viewBox="0 0 8.4666665 8.466667"
   version="1.1"
   id="svg8"
   inkscape:version="1.0 (4035a4f, 2020-05-01)"
   sodipodi:docname="skull-square-b.svg">
  <defs
     id="defs2">
    <inkscape:path-effect
       end_linecap_type="zerowidth"
       scale_width="1"
       miter_limit="4"
       linejoin_type="extrp_arc"
       start_linecap_type="zerowidth"
       interpolator_beta="0.2"
       interpolator_type="CubicBezierJohan"
       sort_points="true"
       offset_points="3,0.1322915"
       lpeversion="1"
       is_visible="true"
       id="path-effect319"
       effect="powerstroke" />
    <inkscape:path-effect
       end_linecap_type="zerowidth"
       scale_width="1"
       miter_limit="4"
       linejoin_type="extrp_arc"
       start_linecap_type="zerowidth"
       interpolator_beta="0.2"
       interpolator_type="CubicBezierJohan"
       sort_points="true"
       offset_points="4,0.1322915"
       lpeversion="1"
       is_visible="true"
       id="path-effect315"
       effect="powerstroke" />
    <inkscape:path-effect
       end_linecap_type="zerowidth"
       scale_width="1"
       miter_limit="4"
       linejoin_type="extrp_arc"
       start_linecap_type="zerowidth"
       interpolator_beta="0.2"
       interpolator_type="CubicBezierJohan"
       sort_points="true"
       offset_points="1,0.1322915"
       lpeversion="1"
       is_visible="true"
       id="path-effect311"
       effect="powerstroke" />
    <inkscape:path-effect
       end_linecap_type="zerowidth"
       scale_width="1"
       miter_limit="4"
       linejoin_type="extrp_arc"
       start_linecap_type="zerowidth"
       interpolator_beta="0.2"
       interpolator_type="CubicBezierJohan"
       sort_points="true"
       offset_points="1,0.1322915"
       lpeversion="1"
       is_visible="true"
       id="path-effect307"
       effect="powerstroke" />
    <inkscape:path-effect
       end_linecap_type="zerowidth"
       scale_width="1"
       miter_limit="4"
       linejoin_type="extrp_arc"
       start_linecap_type="zerowidth"
       interpolator_beta="0.2"
       interpolator_type="CubicBezierJohan"
       sort_points="true"
       offset_points="1,0.1322915"
       lpeversion="1"
       is_visible="true"
       id="path-effect303"
       effect="powerstroke" />
    <inkscape:path-effect
       end_linecap_type="zerowidth"
       scale_width="1"
       miter_limit="4"
       linejoin_type="extrp_arc"
       start_linecap_type="zerowidth"
       interpolator_beta="0.2"
       interpolator_type="CubicBezierJohan"
       sort_points="true"
       offset_points="1,0.1322915"
       lpeversion="1"
       is_visible="true"
       id="path-effect299"
       effect="powerstroke" />
    <inkscape:path-effect
       end_linecap_type="zerowidth"
       scale_width="1"
       miter_limit="4"
       linejoin_type="extrp_arc"
       start_linecap_type="zerowidth"
       interpolator_beta="0.2"
       interpolator_type="CubicBezierJohan"
       sort_points="true"
       offset_points="3,0.1322915"
       lpeversion="1"
       is_visible="true"
       id="path-effect295"
       effect="powerstroke" />
    <inkscape:path-effect
       end_linecap_type="zerowidth"
       scale_width="1"
       miter_limit="4"
       linejoin_type="extrp_arc"
       start_linecap_type="zerowidth"
       interpolator_beta="0.2"
       interpolator_type="CubicBezierJohan"
       sort_points="true"
       offset_points="1,0.1322915"
       lpeversion="1"
       is_visible="true"
       id="path-effect291"
       effect="powerstroke" />
    <inkscape:path-effect
       end_linecap_type="zerowidth"
       scale_width="1"
       miter_limit="4"
       linejoin_type="extrp_arc"
       start_linecap_type="zerowidth"
       interpolator_beta="0.2"
       interpolator_type="CubicBezierJohan"
       sort_points="true"
       offset_points="1,0.1322915"
       lpeversion="1"
       is_visible="true"
       id="path-effect287"
       effect="powerstroke" />
    <inkscape:path-effect
       end_linecap_type="zerowidth"
       scale_width="1"
       miter_limit="4"
       linejoin_type="extrp_arc"
       start_linecap_type="zerowidth"
       interpolator_beta="0.2"
       interpolator_type="CubicBezierJohan"
       sort_points="true"
       offset_points="1,0.1322915"
       lpeversion="1"
       is_visible="true"
       id="path-effect283"
       effect="powerstroke" />
    <inkscape:path-effect
       end_linecap_type="zerowidth"
       scale_width="1"
       miter_limit="4"
       linejoin_type="extrp_arc"
       start_linecap_type="zerowidth"
       interpolator_beta="0.2"
       interpolator_type="CubicBezierJohan"
       sort_points="true"
       offset_points="1,0.1322915"
       lpeversion="1"
       is_visible="true"
       id="path-effect279"
       effect="powerstroke" />
    <inkscape:path-effect
       end_linecap_type="zerowidth"
       scale_width="1"
       miter_limit="4"
       linejoin_type="extrp_arc"
       start_linecap_type="zerowidth"
       interpolator_beta="0.2"
       interpolator_type="CubicBezierJohan"
       sort_points="true"
       offset_points="1,0.1322915"
       lpeversion="1"
       is_visible="true"
       id="path-effect275"
       effect="powerstroke" />
    <inkscape:path-effect
       end_linecap_type="zerowidth"
       scale_width="1"
       miter_limit="4"
       linejoin_type="extrp_arc"
       start_linecap_type="zerowidth"
       interpolator_beta="0.2"
       interpolator_type="CubicBezierJohan"
       sort_points="true"
       offset_points="1,0.1322915"
       lpeversion="1"
       is_visible="true"
       id="path-effect271"
       effect="powerstroke" />
    <inkscape:path-effect
       end_linecap_type="zerowidth"
       scale_width="1"
       miter_limit="4"
       linejoin_type="extrp_arc"
       start_linecap_type="zerowidth"
       interpolator_beta="0.2"
       interpolator_type="CubicBezierJohan"
       sort_points="true"
       offset_points="1,0.1322915"
       lpeversion="1"
       is_visible="true"
       id="path-effect267"
       effect="powerstroke" />
    <inkscape:path-effect
       end_linecap_type="zerowidth"
       scale_width="1"
       miter_limit="4"
       linejoin_type="extrp_arc"
       start_linecap_type="zerowidth"
       interpolator_beta="0.2"
       interpolator_type="CubicBezierJohan"
       sort_points="true"
       offset_points="1,0.1322915"
       lpeversion="1"
       is_visible="true"
       id="path-effect263"
       effect="powerstroke" />
    <inkscape:path-effect
       end_linecap_type="zerowidth"
       scale_width="1"
       miter_limit="4"
       linejoin_type="extrp_arc"
       start_linecap_type="zerowidth"
       interpolator_beta="0.2"
       interpolator_type="CubicBezierJohan"
       sort_points="true"
       offset_points="1,0.1322915"
       lpeversion="1"
       is_visible="true"
       id="path-effect259"
       effect="powerstroke" />
    <inkscape:path-effect
       end_linecap_type="zerowidth"
       scale_width="1"
       miter_limit="4"
       linejoin_type="extrp_arc"
       start_linecap_type="zerowidth"
       interpolator_beta="0.2"
       interpolator_type="CubicBezierJohan"
       sort_points="true"
       offset_points="1,0.1322915"
       lpeversion="1"
       is_visible="true"
       id="path-effect255"
       effect="powerstroke" />
    <inkscape:path-effect
       end_linecap_type="zerowidth"
       scale_width="1"
       miter_limit="4"
       linejoin_type="extrp_arc"
       start_linecap_type="zerowidth"
       interpolator_beta="0.2"
       interpolator_type="CubicBezierJohan"
       sort_points="true"
       offset_points="1,0.1322915"
       lpeversion="1"
       is_visible="true"
       id="path-effect251"
       effect="powerstroke" />
    <inkscape:path-effect
       end_linecap_type="zerowidth"
       scale_width="1"
       miter_limit="4"
       linejoin_type="extrp_arc"
       start_linecap_type="zerowidth"
       interpolator_beta="0.2"
       interpolator_type="CubicBezierJohan"
       sort_points="true"
       offset_points="1,0.1322915"
       lpeversion="1"
       is_visible="true"
       id="path-effect247"
       effect="powerstroke" />
    <inkscape:path-effect
       end_linecap_type="zerowidth"
       scale_width="1"
       miter_limit="4"
       linejoin_type="extrp_arc"
       start_linecap_type="zerowidth"
       interpolator_beta="0.2"
       interpolator_type="CubicBezierJohan"
       sort_points="true"
       offset_points="1,0.1322915"
       lpeversion="1"
       is_visible="true"
       id="path-effect243"
       effect="powerstroke" />
  </defs>
  <sodipodi:namedview
     inkscape:pagecheckerboard="true"
     id="base"
     pagecolor="#ffffff"
     bordercolor="#666666"
     borderopacity="1.0"
     inkscape:pageopacity="0.0"
     inkscape:pageshadow="2"
     inkscape:zoom="19.40625"
     inkscape:cx="16"
     inkscape:cy="16"
     inkscape:document-units="px"
     inkscape:current-layer="layer1"
     inkscape:document-rotation="0"
     showgrid="false"
     units="px"
     inkscape:showpageshadow="false"
     inkscape:window-width="1440"
     inkscape:window-height="829"
     inkscape:window-x="0"
     inkscape:window-y="23"
     inkscape:window-maximized="0"
     showguides="true"
     inkscape:guide-bbox="true" />
  <metadata
     id="metadata5">
    <rdf:RDF>
      <cc:Work
         rdf:about="">
        <dc:format>image/svg+xml</dc:format>
        <dc:type
           rdf:resource="http://purl.org/dc/dcmitype/StillImage" />
        <dc:title></dc:title>
      </cc:Work>
    </rdf:RDF>
  </metadata>
  <g
     inkscape:label="Layer 1"
     inkscape:groupmode="layer"
     id="layer1">
    <path
       id="path1196"
       style="fill-opacity:1;stroke:none;stroke-width:0.610615;stroke-linecap:round;stroke-linejoin:round;stroke-dasharray:1.83184, 1.83184"
       d="M 0.48423892,0.11865618 V 3.3616307 7.0852618 H 1.1314453 1.3058629 2.1518291 V 8.3480106 H 6.3148377 V 7.0852618 h 0.7490601 0.085951 0.832579 V 3.3616307 0.11865618 Z M 2.7705677,3.4287305 a 1.3102144,1.3102144 0 0 1 1.3102051,1.310232 1.3102144,1.3102144 0 0 1 -1.3102051,1.3102051 1.3102144,1.3102144 0 0 1 -1.310232,-1.3102051 1.3102144,1.3102144 0 0 1 1.310232,-1.310232 z m 2.8988392,0 A 1.3102144,1.3102144 0 0 1 6.9796121,4.7389625 1.3102144,1.3102144 0 0 1 5.6694069,6.0491676 1.3102144,1.3102144 0 0 1 4.3592018,4.7389625 1.3102144,1.3102144 0 0 1 5.6694069,3.4287305 Z M 4.2483327,6.0156729 4.5040849,6.1725226 h 0.0485 c 0.096916,0 0.174937,0.078028 0.1749356,0.1749354 v 0.2623919 c 0,0.096916 -0.078028,0.1749355 -0.1749356,0.1749355 h -0.638492 c -0.096916,0 -0.1749356,-0.078028 -0.1749356,-0.1749355 V 6.347458 c 0,-0.096916 0.078028,-0.1749354 0.1749356,-0.1749354 h 0.057188 z m -1.7697722,1.165622 h 0.3230712 c 0.065082,0 0.1174735,0.052405 0.1174735,0.1174735 v 0.1761919 c 0,0.065082 -0.052405,0.1174735 -0.1174735,0.1174735 H 2.4785605 c -0.065082,0 -0.1174593,-0.052405 -0.1174593,-0.1174735 V 7.2987684 c 0,-0.065082 0.052377,-0.1174735 0.1174593,-0.1174735 z m 1.2746066,0 h 0.3230428 c 0.065082,0 0.1174735,0.052405 0.1174735,0.1174735 v 0.1761919 c 0,0.065082 -0.052405,0.1174735 -0.1174735,0.1174735 H 3.7531671 c -0.065082,0 -0.1174736,-0.052405 -0.1174736,-0.1174735 V 7.2987684 c 0,-0.065082 0.052406,-0.1174735 0.1174736,-0.1174735 z m 0.6372898,0 h 0.3230428 c 0.065082,0 0.1174736,0.052405 0.1174736,0.1174735 v 0.1761919 c 0,0.065082 -0.052405,0.1174735 -0.1174736,0.1174735 H 4.3904569 c -0.065082,0 -0.1174735,-0.052405 -0.1174735,-0.1174735 V 7.2987684 c 0,-0.065082 0.052405,-0.1174735 0.1174735,-0.1174735 z m 1.2745782,0 h 0.3230697 c 0.065082,0 0.1174594,0.052405 0.1174594,0.1174735 v 0.1761919 c 0,0.065082 -0.052377,0.1174735 -0.1174594,0.1174735 H 5.6650351 c -0.065082,0 -0.1174735,-0.052405 -0.1174735,-0.1174735 V 7.2987684 c 0,-0.065082 0.052405,-0.1174735 0.1174735,-0.1174735 z m -2.6090449,0.00353 h 0.4697299 c 0.024449,0 0.044143,0.01968 0.044143,0.044128 v 0.091172 c 0,0.024449 -0.019708,0.044128 -0.044143,0.044128 H 3.0559902 c -0.024449,0 -0.044128,-0.01968 -0.044128,-0.044128 v -0.091172 c 0,-0.024449 0.01968,-0.044128 0.044128,-0.044128 z m 1.8886719,0 h 0.4697298 c 0.024449,0 0.044128,0.01968 0.044128,0.044128 v 0.091172 c 0,0.024449 -0.01968,0.044128 -0.044128,0.044128 H 4.9446621 c -0.024449,0 -0.044143,-0.01968 -0.044143,-0.044128 v -0.091172 c 0,-0.024449 0.019708,-0.044128 0.044143,-0.044128 z m -1.8209977,0.250977 h 0.3343814 c 0.061941,0 0.1118284,0.049887 0.1118284,0.1118283 V 7.965232 c 0,0.061941 -0.049887,0.1118283 -0.1118284,0.1118283 H 3.1236644 c -0.061941,0 -0.1118,-0.049887 -0.1118,-0.1118283 V 7.5476302 c 0,-0.061941 0.049859,-0.1118283 0.1118,-0.1118283 z m 1.9055296,0 h 0.3006674 c 0.071279,0 0.1286507,0.0574 0.1286507,0.128679 v 0.3838877 c 0,0.071279 -0.057371,0.128679 -0.1286507,0.128679 H 5.029194 c -0.071279,0 -0.128679,-0.0574 -0.128679,-0.128679 V 7.5644809 c 0,-0.071279 0.0574,-0.128679 0.128679,-0.128679 z M 2.4785605,7.665872 h 0.3230712 c 0.065082,0 0.1174735,0.052405 0.1174735,0.1174735 v 0.1762201 c 0,0.065082 -0.052405,0.1174735 -0.1174735,0.1174735 H 2.4785605 c -0.065082,0 -0.1174593,-0.052406 -0.1174593,-0.1174735 V 7.7833455 c 0,-0.065082 0.052377,-0.1174735 0.1174593,-0.1174735 z m 1.2746066,0 h 0.3230428 c 0.065082,0 0.1174735,0.052405 0.1174735,0.1174735 v 0.1762201 c 0,0.065082 -0.052405,0.1174735 -0.1174735,0.1174735 H 3.7531671 c -0.065082,0 -0.1174736,-0.052406 -0.1174736,-0.1174735 V 7.7833455 c 0,-0.065082 0.052406,-0.1174735 0.1174736,-0.1174735 z m 0.6372898,0 h 0.3230428 c 0.065082,0 0.1174736,0.052405 0.1174736,0.1174735 v 0.1762201 c 0,0.065082 -0.052405,0.1174735 -0.1174736,0.1174735 H 4.3904569 c -0.065082,0 -0.1174735,-0.052406 -0.1174735,-0.1174735 V 7.7833455 c 0,-0.065082 0.052405,-0.1174735 0.1174735,-0.1174735 z m 1.2745782,0 h 0.3230697 c 0.065082,0 0.1174594,0.052405 0.1174594,0.1174735 v 0.1762201 c 0,0.065082 -0.052377,0.1174735 -0.1174594,0.1174735 H 5.6650351 c -0.065082,0 -0.1174735,-0.052406 -0.1174735,-0.1174735 V 7.7833455 c 0,-0.065082 0.052405,-0.1174735 0.1174735,-0.1174735 z" />
  </g>
</svg>
